<mxfile host="app.diagrams.net" agent="Mozilla/5.0 (Windows NT 10.0; Win64; x64) AppleWebKit/537.36 (KHTML, like Gecko) Chrome/128.0.0.0 Safari/537.36" version="25.0.1">
  <diagram name="Page-1" id="vj93wLl-G3wx-1J5ryOs">
    <mxGraphModel dx="2098" dy="1345" grid="0" gridSize="10" guides="1" tooltips="1" connect="1" arrows="1" fold="1" page="0" pageScale="1" pageWidth="850" pageHeight="1100" math="0" shadow="0">
      <root>
        <mxCell id="0" />
        <mxCell id="1" parent="0" />
        <mxCell id="4OSnW97A3lsd2mWk9ZeH-1" value="&lt;u&gt;&lt;font style=&quot;font-size: 14px;&quot;&gt;Emp_ID &lt;/font&gt;&lt;/u&gt;, Fname , Lname , Phone_num , Bonus , Address , DOB , Salary , Email&amp;nbsp;" style="rounded=0;whiteSpace=wrap;html=1;" vertex="1" parent="1">
          <mxGeometry x="-142" y="-171" width="585" height="67" as="geometry" />
        </mxCell>
        <mxCell id="4OSnW97A3lsd2mWk9ZeH-2" value="&lt;b&gt;&lt;font style=&quot;font-size: 18px;&quot;&gt;Employee&lt;/font&gt;&lt;/b&gt;" style="text;html=1;align=center;verticalAlign=middle;whiteSpace=wrap;rounded=0;fontSize=16;" vertex="1" parent="1">
          <mxGeometry x="-145" y="-207" width="85" height="30" as="geometry" />
        </mxCell>
      </root>
    </mxGraphModel>
  </diagram>
</mxfile>
